<svg xmlns="http://www.w3.org/2000/svg" xmlns:xlink="http://www.w3.org/1999/xlink" viewBox="0 0 375 121">
  <defs>
    <style>
      .cls-1 {
        clip-path: url(#clip-BANNER_1);
      }

      .cls-2 {
        fill: #39b54a;
      }

      .cls-3 {
        fill: #00d9ce;
      }

      .cls-4 {
        fill: #f5f5f5;
      }

      .cls-5 {
        fill: #302d2d;
      }

      .cls-17, .cls-18, .cls-6 {
        fill: #fff;
      }

      .cls-7 {
        opacity: 0.5;
      }

      .cls-8 {
        fill: #fbb03b;
      }

      .cls-9 {
        fill: #f15a24;
      }

      .cls-10 {
        fill: #e6e6e6;
      }

      .cls-11 {
        fill: #04c4d5;
      }

      .cls-12 {
        fill: #f7931e;
      }

      .cls-13 {
        fill: #ea9a32;
      }

      .cls-14 {
        fill: #f2f2f2;
      }

      .cls-15, .cls-16 {
        fill: none;
      }

      .cls-15 {
        stroke: #302d2d;
        stroke-linecap: round;
        stroke-linejoin: round;
        stroke-miterlimit: 10;
        stroke-width: 1.8px;
      }

      .cls-17 {
        font-size: 9px;
        font-family: MicrosoftYaHei-Bold, Microsoft YaHei;
        font-weight: 700;
      }

      .cls-18 {
        font-size: 5px;
        font-family: MicrosoftYaHei, Microsoft YaHei;
      }
    </style>
    <clipPath id="clip-BANNER_1">
      <rect width="375" height="121"/>
    </clipPath>
  </defs>
  <g id="BANNER_1" data-name="BANNER – 1" class="cls-1">
    <rect class="cls-6" width="375" height="121"/>
    <g id="组_1181" data-name="组 1181" transform="translate(0 -2)">
      <rect id="矩形_741" data-name="矩形 741" class="cls-2" width="375" height="125.016"/>
      <g id="组_813" data-name="组 813" transform="translate(185.767 42.236)">
        <g id="组_800" data-name="组 800">
          <g id="组_799" data-name="组 799">
            <g id="组_798" data-name="组 798">
              <circle id="椭圆_44" data-name="椭圆 44" class="cls-3" cx="9.984" cy="9.984" r="9.984" transform="translate(0 14.12) rotate(-45)"/>
            </g>
          </g>
        </g>
        <g id="XMLID_7_" transform="translate(6.89 6.889)">
          <g id="组_803" data-name="组 803" transform="translate(0.422 0.422)">
            <g id="组_802" data-name="组 802">
              <g id="组_801" data-name="组 801">
                <path id="路径_2933" data-name="路径 2933" class="cls-4" d="M415.65,107.9a6,6,0,0,1,1.969-.8h0l.328-1.406h1.5l.328,1.406h0a5.618,5.618,0,0,1,1.969.8l1.219-.75,1.031,1.031-.75,1.219a7.347,7.347,0,0,1,.844,1.969l1.406.328v1.5l-1.406.328a4.931,4.931,0,0,1-.844,1.969l.75,1.219-1.078,1.078-1.219-.75a7.347,7.347,0,0,1-1.969.844l-.328,1.406h-1.5l-.328-1.406a4.931,4.931,0,0,1-1.969-.844l-1.219.75-1.031-1.031.75-1.219a6,6,0,0,1-.8-1.969l-1.406-.328v-1.5l1.406-.328a4.93,4.93,0,0,1,.844-1.969l-.75-1.219,1.031-1.078Zm5.109,4.594a2.016,2.016,0,1,0-2.016,2.016A2.031,2.031,0,0,0,420.759,112.5Z" transform="translate(-411.9 -105.7)"/>
              </g>
            </g>
          </g>
          <g id="组_812" data-name="组 812">
            <g id="组_805" data-name="组 805" transform="translate(3.75 2.25)">
              <g id="组_804" data-name="组 804">
                <path id="路径_2934" data-name="路径 2934" class="cls-5" d="M419.422,110.444a.42.42,0,0,1-.422-.422.283.283,0,0,1,.141-.281.405.405,0,0,1,.281-.141.42.42,0,0,1,.422.422A.453.453,0,0,1,419.422,110.444Z" transform="translate(-419 -109.6)"/>
              </g>
            </g>
            <g id="组_807" data-name="组 807">
              <g id="组_806" data-name="组 806">
                <path id="路径_2935" data-name="路径 2935" class="cls-5" d="M418.969,119.238h-1.5a.45.45,0,0,1-.422-.328l-.281-1.125a7.061,7.061,0,0,1-1.641-.656l-.984.609a.42.42,0,0,1-.516-.047l-1.031-1.031a.426.426,0,0,1-.047-.516l.609-.984a6.323,6.323,0,0,1-.656-1.641l-1.172-.281a.45.45,0,0,1-.328-.422v-1.5a.45.45,0,0,1,.328-.422l1.172-.281a7.061,7.061,0,0,1,.656-1.641l-.609-.984a.42.42,0,0,1,.047-.516l1.031-1.078a.371.371,0,0,1,.516-.047l.984.609a5.021,5.021,0,0,1,1.641-.656l.281-1.172a.45.45,0,0,1,.422-.328h1.5a.45.45,0,0,1,.422.328l.281,1.172a7.061,7.061,0,0,1,1.641.656l.984-.609a.42.42,0,0,1,.516.047l1.031,1.031a.426.426,0,0,1,.047.516l-.609.984a5.021,5.021,0,0,1,.656,1.641l1.125.281a.45.45,0,0,1,.328.422v1.5a.45.45,0,0,1-.328.422l-1.125.281a7.061,7.061,0,0,1-.656,1.641l.609.984a.42.42,0,0,1-.047.516l-1.078,1.078a.371.371,0,0,1-.516.047l-.938-.656a5.021,5.021,0,0,1-1.641.656l-.281,1.125A.41.41,0,0,1,418.969,119.238Zm-1.125-.844h.8l.234-1.078a.566.566,0,0,1,.328-.328,5.2,5.2,0,0,0,1.828-.75.426.426,0,0,1,.469,0l.938.609.563-.562-.609-.937a.426.426,0,0,1,0-.469,5.2,5.2,0,0,0,.75-1.828.463.463,0,0,1,.328-.328l1.078-.234v-.844l-1.078-.234a.566.566,0,0,1-.328-.328,5.2,5.2,0,0,0-.75-1.828.426.426,0,0,1,0-.469l.609-.937-.562-.562-.937.609a.426.426,0,0,1-.469,0,5.2,5.2,0,0,0-1.828-.75.411.411,0,0,1-.328-.422l-.234-.984h-.8l-.234,1.031a.4.4,0,0,1-.328.375,5.2,5.2,0,0,0-1.828.75.426.426,0,0,1-.469,0l-.937-.609-.562.563.609.938a.426.426,0,0,1,0,.469,5.2,5.2,0,0,0-.75,1.828.463.463,0,0,1-.328.328l-1.078.234v.844l1.078.234a.566.566,0,0,1,.328.328,5.2,5.2,0,0,0,.75,1.828.426.426,0,0,1,0,.469l-.609.938.563.563.938-.609a.426.426,0,0,1,.469,0,5.2,5.2,0,0,0,1.828.75.463.463,0,0,1,.328.328Z" transform="translate(-411 -104.8)"/>
              </g>
            </g>
            <g id="组_809" data-name="组 809" transform="translate(4.781 4.781)">
              <g id="组_808" data-name="组 808">
                <path id="路径_2936" data-name="路径 2936" class="cls-5" d="M423.638,119.875a2.451,2.451,0,0,1-2.438-2.437,2.438,2.438,0,0,1,4.875,0A2.392,2.392,0,0,1,423.638,119.875Zm0-4.078a1.594,1.594,0,1,0,1.594,1.594A1.581,1.581,0,0,0,423.638,115.8Z" transform="translate(-421.2 -115)"/>
              </g>
            </g>
            <g id="组_811" data-name="组 811" transform="translate(2.906 2.906)">
              <g id="组_810" data-name="组 810">
                <path id="路径_2937" data-name="路径 2937" class="cls-5" d="M417.622,115.734a.42.42,0,0,1-.422-.422A4.321,4.321,0,0,1,421.513,111a.422.422,0,0,1,0,.844,3.522,3.522,0,0,0-3.469,3.469A.42.42,0,0,1,417.622,115.734Z" transform="translate(-417.2 -111)"/>
              </g>
            </g>
          </g>
        </g>
      </g>
      <g id="组_830" data-name="组 830" transform="translate(200.016 26.531)">
        <g id="组_820" data-name="组 820" transform="translate(20.484)">
          <g id="组_816" data-name="组 816" transform="translate(0.398 0.375)">
            <g id="组_815" data-name="组 815">
              <g id="组_814" data-name="组 814">
                <path id="路径_2938" data-name="路径 2938" class="cls-6" d="M489.039,57.447a.94.94,0,0,1,.938.938V68.463a.94.94,0,0,1-.937.938H475.68a1.988,1.988,0,0,1-1.453-.8L471.461,64.2a1.611,1.611,0,0,1,0-1.594l2.766-4.406a1.988,1.988,0,0,1,1.453-.8h13.359Z" transform="translate(-471.25 -57.4)"/>
              </g>
            </g>
          </g>
          <g id="组_819" data-name="组 819">
            <g id="组_818" data-name="组 818">
              <g id="组_817" data-name="组 817">
                <path id="路径_2939" data-name="路径 2939" class="cls-5" d="M488.588,69.4H475.228a2.243,2.243,0,0,1-1.781-.984l-2.766-4.406a1.946,1.946,0,0,1,0-2.016l2.766-4.406a2.243,2.243,0,0,1,1.781-.984h13.359a1.36,1.36,0,0,1,1.359,1.359V68.037A1.36,1.36,0,0,1,488.588,69.4ZM475.228,57.444a1.424,1.424,0,0,0-1.078.609l-2.766,4.406a1.2,1.2,0,0,0,0,1.125l2.766,4.406a1.424,1.424,0,0,0,1.078.609h13.359a.52.52,0,0,0,.516-.516V57.959a.52.52,0,0,0-.516-.516Z" transform="translate(-470.4 -56.6)"/>
              </g>
            </g>
          </g>
        </g>
        <g id="组_823" data-name="组 823" transform="translate(23.203 4.5)">
          <g id="组_822" data-name="组 822">
            <g id="组_821" data-name="组 821">
              <path id="路径_2940" data-name="路径 2940" class="cls-5" d="M478.169,70.044a1.972,1.972,0,0,1-1.969-1.922,1.941,1.941,0,0,1,1.969-1.922,1.972,1.972,0,0,1,1.969,1.922A1.941,1.941,0,0,1,478.169,70.044Zm0-3.047a1.1,1.1,0,0,0-1.078,1.125,1.133,1.133,0,0,0,1.078,1.125,1.1,1.1,0,0,0,1.078-1.125A1.072,1.072,0,0,0,478.169,67Z" transform="translate(-476.2 -66.2)"/>
            </g>
          </g>
        </g>
        <g id="组_826" data-name="组 826" transform="translate(8.344 6)">
          <g id="组_825" data-name="组 825">
            <g id="组_824" data-name="组 824">
              <path id="路径_2941" data-name="路径 2941" class="cls-5" d="M461.328,70.244H444.922a.422.422,0,0,1,0-.844h16.406a.422.422,0,0,1,0,.844Z" transform="translate(-444.5 -69.4)"/>
            </g>
          </g>
        </g>
        <g id="组_829" data-name="组 829" transform="translate(0 6)">
          <g id="组_828" data-name="组 828">
            <g id="组_827" data-name="组 827">
              <path id="路径_2942" data-name="路径 2942" class="cls-5" d="M441.372,76.337h-14.25a.422.422,0,0,1,0-.844h14.25a1.1,1.1,0,0,0,1.078-1.125,1.133,1.133,0,0,0-1.078-1.125h-5.906a1.972,1.972,0,0,1-1.969-1.922,1.941,1.941,0,0,1,1.969-1.922.422.422,0,0,1,0,.844,1.1,1.1,0,0,0-1.078,1.125,1.133,1.133,0,0,0,1.078,1.125h5.906a1.922,1.922,0,1,1,0,3.844Z" transform="translate(-426.7 -69.4)"/>
            </g>
          </g>
        </g>
      </g>
      <g id="组_833" data-name="组 833" class="cls-7" transform="translate(207.384 56.933)">
        <g id="组_832" data-name="组 832">
          <g id="组_831" data-name="组 831">
            <circle id="椭圆_45" data-name="椭圆 45" class="cls-8" cx="17.719" cy="17.719" r="17.719" transform="matrix(0.252, -0.968, 0.968, 0.252, 0, 34.296)"/>
          </g>
        </g>
      </g>
      <g id="组_836" data-name="组 836" class="cls-7" transform="translate(284.729 38.74)">
        <g id="组_835" data-name="组 835">
          <g id="组_834" data-name="组 834">
            <circle id="椭圆_46" data-name="椭圆 46" class="cls-6" cx="17.719" cy="17.719" r="17.719" transform="matrix(0.226, -0.974, 0.974, 0.226, 0, 34.52)"/>
          </g>
        </g>
      </g>
      <g id="组_839" data-name="组 839" transform="translate(265.594 17.109)">
        <g id="组_838" data-name="组 838">
          <g id="组_837" data-name="组 837">
            <path id="路径_2943" data-name="路径 2943" class="cls-5" d="M581.834,38.375a1.575,1.575,0,0,1-1.172-.609c-.187-.234-.281-.328-.469-.328s-.234.094-.469.328a1.431,1.431,0,0,1-2.344,0c-.187-.234-.281-.328-.469-.328s-.234.094-.469.328a1.431,1.431,0,0,1-2.344,0c-.187-.234-.281-.328-.469-.328s-.234.094-.469.328a1.431,1.431,0,0,1-2.344,0c-.187-.234-.281-.328-.469-.328s-.234.094-.469.328a1.431,1.431,0,0,1-2.344,0c-.187-.234-.281-.328-.469-.328a.469.469,0,0,1,0-.937,1.575,1.575,0,0,1,1.172.609c.188.234.281.328.469.328s.234-.094.469-.328a1.431,1.431,0,0,1,2.344,0c.188.234.281.328.469.328s.234-.094.469-.328a1.431,1.431,0,0,1,2.344,0c.188.234.281.328.469.328s.234-.094.469-.328a1.431,1.431,0,0,1,2.344,0c.188.234.281.328.469.328s.234-.094.469-.328a1.431,1.431,0,0,1,2.344,0c.188.234.281.328.469.328a.469.469,0,0,1,0,.938Z" transform="translate(-566.6 -36.5)"/>
          </g>
        </g>
      </g>
      <g id="组_842" data-name="组 842" transform="translate(328.172 37.969)">
        <g id="组_841" data-name="组 841">
          <g id="组_840" data-name="组 840">
            <path id="路径_2944" data-name="路径 2944" class="cls-5" d="M715.334,82.875a1.575,1.575,0,0,1-1.172-.609c-.187-.234-.281-.328-.469-.328s-.234.094-.469.328a1.431,1.431,0,0,1-2.344,0c-.187-.234-.281-.328-.469-.328s-.234.094-.469.328a1.431,1.431,0,0,1-2.344,0c-.187-.234-.281-.328-.469-.328s-.234.094-.469.328a1.431,1.431,0,0,1-2.344,0c-.187-.234-.281-.328-.469-.328s-.234.094-.469.328a1.431,1.431,0,0,1-2.344,0c-.187-.234-.281-.328-.469-.328a.469.469,0,0,1,0-.937,1.575,1.575,0,0,1,1.172.609c.188.234.281.328.469.328s.234-.094.469-.328a1.431,1.431,0,0,1,2.344,0c.188.234.281.328.469.328s.234-.094.469-.328a1.431,1.431,0,0,1,2.344,0c.188.234.281.328.469.328s.234-.094.469-.328a1.431,1.431,0,0,1,2.344,0c.188.234.281.328.469.328s.234-.094.469-.328a1.431,1.431,0,0,1,2.344,0c.188.234.281.328.469.328a.469.469,0,0,1,0,.938Z" transform="translate(-700.1 -81)"/>
          </g>
        </g>
      </g>
      <g id="组_885" data-name="组 885" transform="translate(249.75 24)">
        <g id="组_845" data-name="组 845" transform="translate(9.844)">
          <g id="组_844" data-name="组 844">
            <g id="组_843" data-name="组 843">
              <path id="路径_2945" data-name="路径 2945" class="cls-5" d="M554.222,54.434a.42.42,0,0,1-.422-.422V51.622a.422.422,0,0,1,.844,0v2.391A.42.42,0,0,1,554.222,54.434Z" transform="translate(-553.8 -51.2)"/>
            </g>
          </g>
        </g>
        <g id="组_848" data-name="组 848" transform="translate(4.922 1.359)">
          <g id="组_847" data-name="组 847">
            <g id="组_846" data-name="组 846">
              <path id="路径_2946" data-name="路径 2946" class="cls-5" d="M544.894,57.006a.478.478,0,0,1-.375-.234l-1.172-2.062a.41.41,0,0,1,.7-.422l1.172,2.063a.434.434,0,0,1-.141.563A.244.244,0,0,1,544.894,57.006Z" transform="translate(-543.3 -54.1)"/>
            </g>
          </g>
        </g>
        <g id="组_851" data-name="组 851" transform="translate(1.339 4.995)">
          <g id="组_850" data-name="组 850">
            <g id="组_849" data-name="组 849">
              <path id="路径_2947" data-name="路径 2947" class="cls-5" d="M538.114,63.845c-.094,0-.141,0-.187-.047l-2.063-1.172a.41.41,0,0,1,.422-.7l2.063,1.172a.392.392,0,0,1,.141.563A.579.579,0,0,1,538.114,63.845Z" transform="translate(-535.656 -61.856)"/>
            </g>
          </g>
        </g>
        <g id="组_854" data-name="组 854" transform="translate(0 9.844)">
          <g id="组_853" data-name="组 853">
            <g id="组_852" data-name="组 852">
              <path id="路径_2948" data-name="路径 2948" class="cls-5" d="M535.612,73.044h-2.391a.422.422,0,0,1,0-.844h2.391a.422.422,0,0,1,0,.844Z" transform="translate(-532.8 -72.2)"/>
            </g>
          </g>
        </g>
        <g id="组_857" data-name="组 857" transform="translate(1.313 13.573)">
          <g id="组_856" data-name="组 856">
            <g id="组_855" data-name="组 855">
              <path id="路径_2949" data-name="路径 2949" class="cls-5" d="M536.022,82.192a.478.478,0,0,1-.375-.234.434.434,0,0,1,.141-.562l2.063-1.172a.392.392,0,0,1,.563.141.434.434,0,0,1-.141.563L536.209,82.1C536.162,82.192,536.116,82.192,536.022,82.192Z" transform="translate(-535.6 -80.156)"/>
            </g>
          </g>
        </g>
        <g id="组_860" data-name="组 860" transform="translate(4.948 16.339)">
          <g id="组_859" data-name="组 859">
            <g id="组_858" data-name="组 858">
              <path id="路径_2950" data-name="路径 2950" class="cls-5" d="M543.751,88.936c-.094,0-.141,0-.187-.047a.392.392,0,0,1-.141-.562l1.172-2.062a.41.41,0,0,1,.7.422l-1.172,2.063A.579.579,0,0,1,543.751,88.936Z" transform="translate(-543.356 -86.056)"/>
            </g>
          </g>
        </g>
        <g id="组_863" data-name="组 863" transform="translate(9.844 17.297)">
          <g id="组_862" data-name="组 862">
            <g id="组_861" data-name="组 861">
              <path id="路径_2951" data-name="路径 2951" class="cls-5" d="M554.222,91.334a.42.42,0,0,1-.422-.422V88.522a.422.422,0,0,1,.844,0v2.391A.42.42,0,0,1,554.222,91.334Z" transform="translate(-553.8 -88.1)"/>
            </g>
          </g>
        </g>
        <g id="组_866" data-name="组 866" transform="translate(13.547 16.292)">
          <g id="组_865" data-name="组 865">
            <g id="组_864" data-name="组 864">
              <path id="路径_2952" data-name="路径 2952" class="cls-5" d="M563.294,88.883a.478.478,0,0,1-.375-.234l-1.172-2.063a.434.434,0,0,1,.141-.562.392.392,0,0,1,.563.141l1.172,2.063a.434.434,0,0,1-.141.563A.244.244,0,0,1,563.294,88.883Z" transform="translate(-561.7 -85.956)"/>
            </g>
          </g>
        </g>
        <g id="组_869" data-name="组 869" transform="translate(16.292 13.62)">
          <g id="组_868" data-name="组 868">
            <g id="组_867" data-name="组 867">
              <path id="路径_2953" data-name="路径 2953" class="cls-5" d="M570.014,82.245c-.094,0-.141,0-.188-.047l-2.062-1.172a.41.41,0,0,1,.422-.7l2.063,1.172a.393.393,0,0,1,.141.563A.579.579,0,0,1,570.014,82.245Z" transform="translate(-567.555 -80.256)"/>
            </g>
          </g>
        </g>
        <g id="组_872" data-name="组 872" transform="translate(17.25 9.844)">
          <g id="组_871" data-name="组 871">
            <g id="组_870" data-name="组 870">
              <path id="路径_2954" data-name="路径 2954" class="cls-5" d="M572.412,73.044h-2.391a.422.422,0,0,1,0-.844h2.391a.422.422,0,0,1,0,.844Z" transform="translate(-569.6 -72.2)"/>
            </g>
          </g>
        </g>
        <g id="组_875" data-name="组 875" transform="translate(16.266 4.948)">
          <g id="组_874" data-name="组 874">
            <g id="组_873" data-name="组 873">
              <path id="路径_2955" data-name="路径 2955" class="cls-5" d="M567.922,63.792a.478.478,0,0,1-.375-.234.434.434,0,0,1,.141-.562l2.063-1.172a.392.392,0,0,1,.563.141.434.434,0,0,1-.141.563L568.109,63.7A.244.244,0,0,1,567.922,63.792Z" transform="translate(-567.5 -61.756)"/>
            </g>
          </g>
        </g>
        <g id="组_878" data-name="组 878" transform="translate(13.573 1.385)">
          <g id="组_877" data-name="组 877">
            <g id="组_876" data-name="组 876">
              <path id="路径_2956" data-name="路径 2956" class="cls-5" d="M562.151,57.036c-.094,0-.141,0-.187-.047a.392.392,0,0,1-.141-.562L563,54.364a.41.41,0,0,1,.7.422l-1.172,2.063A.579.579,0,0,1,562.151,57.036Z" transform="translate(-561.756 -54.156)"/>
            </g>
          </g>
        </g>
        <g id="组_881" data-name="组 881" transform="translate(6.574 4.313)">
          <g id="组_880" data-name="组 880">
            <g id="组_879" data-name="组 879">
              <path id="路径_2957" data-name="路径 2957" class="cls-5" d="M547.235,69.072a.314.314,0,0,1-.328-.187.444.444,0,0,1,.094-.609l3.094-2.156v-5.3a.422.422,0,1,1,.844,0v5.531a.314.314,0,0,1-.187.328l-3.281,2.3A.258.258,0,0,1,547.235,69.072Z" transform="translate(-546.826 -60.4)"/>
            </g>
          </g>
        </g>
        <g id="组_884" data-name="组 884" transform="translate(9.516 9.563)">
          <g id="组_883" data-name="组 883">
            <g id="组_882" data-name="组 882">
              <path id="路径_2958" data-name="路径 2958" class="cls-5" d="M554.506,72.3a.7.7,0,1,1-.7-.7A.721.721,0,0,1,554.506,72.3Z" transform="translate(-553.1 -71.6)"/>
            </g>
          </g>
        </g>
      </g>
      <g id="组_898" data-name="组 898" transform="translate(320.344 88.453)">
        <g id="组_888" data-name="组 888" transform="translate(5.109 2.953)">
          <g id="组_887" data-name="组 887">
            <g id="组_886" data-name="组 886">
              <path id="路径_2959" data-name="路径 2959" class="cls-5" d="M695.847,195.938h-1.078a.469.469,0,0,1,0-.937h1.078a.443.443,0,0,1,.469.469A.47.47,0,0,1,695.847,195.938Z" transform="translate(-694.3 -195)"/>
            </g>
          </g>
        </g>
        <g id="组_891" data-name="组 891" transform="translate(0 2.953)">
          <g id="组_890" data-name="组 890">
            <g id="组_889" data-name="组 889">
              <path id="路径_2960" data-name="路径 2960" class="cls-5" d="M686.822,195.938h-2.953a.469.469,0,0,1,0-.937h2.953a.443.443,0,0,1,.469.469A.47.47,0,0,1,686.822,195.938Z" transform="translate(-683.4 -195)"/>
            </g>
          </g>
        </g>
        <g id="组_894" data-name="组 894" transform="translate(4.828)">
          <g id="组_893" data-name="组 893">
            <g id="组_892" data-name="组 892">
              <path id="路径_2961" data-name="路径 2961" class="cls-5" d="M695.247,189.637h-1.078a.469.469,0,0,1,0-.937h1.078a.443.443,0,0,1,.469.469A.47.47,0,0,1,695.247,189.637Z" transform="translate(-693.7 -188.7)"/>
            </g>
          </g>
        </g>
        <g id="组_897" data-name="组 897" transform="translate(8.063)">
          <g id="组_896" data-name="组 896">
            <g id="组_895" data-name="组 895">
              <path id="路径_2962" data-name="路径 2962" class="cls-5" d="M704.022,189.637h-2.953a.469.469,0,0,1,0-.937h2.953a.443.443,0,0,1,.469.469A.5.5,0,0,1,704.022,189.637Z" transform="translate(-700.6 -188.7)"/>
            </g>
          </g>
        </g>
      </g>
      <g id="组_901" data-name="组 901" transform="translate(263.484 53.766)">
        <g id="组_900" data-name="组 900">
          <g id="组_899" data-name="组 899">
            <path id="路径_2963" data-name="路径 2963" class="cls-5" d="M563.647,115.637h-1.078a.469.469,0,0,1,0-.937h1.078a.469.469,0,0,1,0,.938Z" transform="translate(-562.1 -114.7)"/>
          </g>
        </g>
      </g>
      <g id="组_904" data-name="组 904" transform="translate(258.375 53.766)">
        <g id="组_903" data-name="组 903">
          <g id="组_902" data-name="组 902">
            <path id="路径_2964" data-name="路径 2964" class="cls-5" d="M554.622,115.637h-2.953a.469.469,0,0,1,0-.937h2.953a.469.469,0,0,1,0,.938Z" transform="translate(-551.2 -114.7)"/>
          </g>
        </g>
      </g>
      <g id="组_907" data-name="组 907" transform="translate(263.203 50.813)">
        <g id="组_906" data-name="组 906">
          <g id="组_905" data-name="组 905">
            <path id="路径_2965" data-name="路径 2965" class="cls-5" d="M563.047,109.338h-1.078a.469.469,0,0,1,0-.937h1.078a.469.469,0,0,1,0,.938Z" transform="translate(-561.5 -108.4)"/>
          </g>
        </g>
      </g>
      <g id="组_910" data-name="组 910" transform="translate(266.438 50.813)">
        <g id="组_909" data-name="组 909">
          <g id="组_908" data-name="组 908">
            <path id="路径_2966" data-name="路径 2966" class="cls-5" d="M571.822,109.338h-2.953a.469.469,0,0,1,0-.937h2.953a.443.443,0,0,1,.469.469A.47.47,0,0,1,571.822,109.338Z" transform="translate(-568.4 -108.4)"/>
          </g>
        </g>
      </g>
      <g id="组_913" data-name="组 913" transform="translate(213.188 21.984)">
        <g id="组_912" data-name="组 912">
          <g id="组_911" data-name="组 911">
            <path id="路径_2967" data-name="路径 2967" class="cls-5" d="M456.347,47.838h-1.078a.469.469,0,0,1,0-.937h1.078a.443.443,0,0,1,.469.469A.47.47,0,0,1,456.347,47.838Z" transform="translate(-454.8 -46.9)"/>
          </g>
        </g>
      </g>
      <g id="组_916" data-name="组 916" transform="translate(216.422 21.984)">
        <g id="组_915" data-name="组 915">
          <g id="组_914" data-name="组 914">
            <path id="路径_2968" data-name="路径 2968" class="cls-5" d="M465.122,47.838h-2.953a.469.469,0,0,1,0-.937h2.953a.443.443,0,0,1,.469.469A.5.5,0,0,1,465.122,47.838Z" transform="translate(-461.7 -46.9)"/>
          </g>
        </g>
      </g>
      <g id="组_919" data-name="组 919" class="cls-7" transform="translate(235.828 54.188)">
        <g id="组_918" data-name="组 918">
          <g id="组_917" data-name="组 917">
            <path id="路径_2969" data-name="路径 2969" class="cls-6" d="M604.162,166.694H507.084a3.984,3.984,0,0,1,0-7.969h97.078a1.661,1.661,0,0,0,1.641-1.641v-37.5a3.984,3.984,0,0,1,7.969,0v37.5A9.623,9.623,0,0,1,604.162,166.694Z" transform="translate(-503.1 -115.6)"/>
          </g>
        </g>
      </g>
      <g id="组_922" data-name="组 922" transform="translate(239.484 57.703)">
        <g id="组_921" data-name="组 921">
          <g id="组_920" data-name="组 920">
            <path id="路径_2970" data-name="路径 2970" class="cls-5" d="M606.994,167.163h-1.875a.469.469,0,0,1,0-.937h1.875a.469.469,0,0,1,0,.938Zm-3.75,0h-1.875a.469.469,0,0,1,0-.937h1.875a.469.469,0,0,1,0,.938Zm-3.75,0h-1.875a.469.469,0,0,1,0-.937h1.875a.469.469,0,0,1,0,.938Zm-3.75,0h-1.875a.469.469,0,0,1,0-.937h1.875a.469.469,0,0,1,0,.938Zm-3.75,0h-1.875a.469.469,0,0,1,0-.937h1.875a.469.469,0,0,1,0,.938Zm-3.75,0h-1.875a.469.469,0,0,1,0-.937h1.875a.469.469,0,0,1,0,.938Zm-3.75,0h-1.875a.469.469,0,0,1,0-.937h1.875a.469.469,0,0,1,0,.938Zm-3.75,0h-1.875a.469.469,0,0,1,0-.937h1.875a.469.469,0,0,1,0,.938Zm-3.75,0h-1.875a.469.469,0,0,1,0-.937h1.875a.469.469,0,0,1,0,.938Zm-3.75,0h-1.875a.469.469,0,0,1,0-.937h1.875a.469.469,0,0,1,0,.938Zm-3.75,0h-1.875a.469.469,0,0,1,0-.937h1.875a.469.469,0,0,1,0,.938Zm-3.75,0h-1.875a.469.469,0,0,1,0-.937h1.875a.469.469,0,0,1,0,.938Zm-3.75,0h-1.875a.469.469,0,0,1,0-.937h1.875a.469.469,0,0,1,0,.938Zm-3.75,0h-1.875a.469.469,0,0,1,0-.937h1.875a.469.469,0,0,1,0,.938Zm-3.75,0h-1.875a.469.469,0,0,1,0-.937h1.875a.469.469,0,0,1,0,.938Zm-3.75,0h-1.875a.469.469,0,0,1,0-.937h1.875a.469.469,0,0,1,0,.938Zm-3.75,0h-1.875a.469.469,0,0,1,0-.937h1.875a.469.469,0,0,1,0,.938Zm-3.75,0h-1.875a.469.469,0,0,1,0-.937h1.875a.469.469,0,0,1,0,.938Zm-3.75,0h-1.875a.469.469,0,0,1,0-.937h1.875a.469.469,0,0,1,0,.938Zm-3.75,0h-1.875a.469.469,0,0,1,0-.937h1.875a.469.469,0,0,1,0,.938Zm-3.75,0h-1.875a.469.469,0,0,1,0-.937h1.875a.469.469,0,0,1,0,.938Zm-3.75,0h-1.875a.469.469,0,0,1,0-.937h1.875a.469.469,0,0,1,0,.938Zm-3.75,0h-1.875a.469.469,0,0,1,0-.937h1.875a.469.469,0,0,1,0,.938Zm-3.75,0h-1.875a.469.469,0,0,1,0-.937h1.875a.469.469,0,0,1,0,.938Zm-3.75,0h-1.875a.469.469,0,0,1,0-.937h1.875a.469.469,0,0,1,0,.938Zm-3.75,0h-1.875a.469.469,0,0,1,0-.937h1.875a.469.469,0,0,1,0,.938Zm95.625,0a.462.462,0,0,1-.469-.422.51.51,0,0,1,.422-.516,4.986,4.986,0,0,0,1.641-.422.462.462,0,1,1,.375.844,5.076,5.076,0,0,1-1.969.516Zm3.375-1.5a.426.426,0,0,1-.328-.141.456.456,0,0,1,.047-.656,4.185,4.185,0,0,0,1.031-1.359.483.483,0,0,1,.844.469,5.937,5.937,0,0,1-1.266,1.594A.4.4,0,0,1,612.244,165.663Zm1.781-3.234h-.094a.464.464,0,0,1-.375-.516,5.1,5.1,0,0,0,.047-.844v-.984a.469.469,0,0,1,.938,0v.984a6.993,6.993,0,0,1-.094.984A.41.41,0,0,1,614.025,162.428Zm.047-3.75a.443.443,0,0,1-.469-.469v-1.875a.469.469,0,0,1,.938,0v1.875A.443.443,0,0,1,614.072,158.678Zm0-3.75a.443.443,0,0,1-.469-.469v-1.875a.469.469,0,0,1,.938,0v1.875A.443.443,0,0,1,614.072,154.928Zm0-3.75a.443.443,0,0,1-.469-.469v-1.875a.469.469,0,0,1,.938,0v1.875A.443.443,0,0,1,614.072,151.178Zm0-3.75a.443.443,0,0,1-.469-.469v-1.875a.469.469,0,0,1,.938,0v1.875A.443.443,0,0,1,614.072,147.428Zm0-3.75a.443.443,0,0,1-.469-.469v-1.875a.469.469,0,0,1,.938,0v1.875A.443.443,0,0,1,614.072,143.678Zm0-3.75a.443.443,0,0,1-.469-.469v-1.875a.469.469,0,0,1,.938,0v1.875A.443.443,0,0,1,614.072,139.928Zm0-3.75a.443.443,0,0,1-.469-.469v-1.875a.469.469,0,0,1,.938,0v1.875A.443.443,0,0,1,614.072,136.178Zm0-3.75a.443.443,0,0,1-.469-.469v-1.875a.469.469,0,0,1,.938,0v1.875A.443.443,0,0,1,614.072,132.428Zm0-3.75a.443.443,0,0,1-.469-.469v-1.875a.469.469,0,0,1,.938,0v1.875A.443.443,0,0,1,614.072,128.678Zm0-3.75a.443.443,0,0,1-.469-.469v-.891a.469.469,0,0,1,.938,0v.891A.443.443,0,0,1,614.072,124.928Z" transform="translate(-510.9 -123.1)"/>
          </g>
        </g>
      </g>
      <g id="组_961" data-name="组 961" transform="translate(215.344 43.172)">
        <g id="组_941" data-name="组 941" transform="translate(0.469 0.469)">
          <g id="组_925" data-name="组 925" transform="translate(21.141 11.062)">
            <g id="组_924" data-name="组 924">
              <g id="组_923" data-name="组 923">
                <path id="路径_2971" data-name="路径 2971" class="cls-9" d="M516.328,116.7l-2.906,5.906,2.906,5.953H505.5v-2.812h4.266V116.7Z" transform="translate(-505.5 -116.7)"/>
              </g>
            </g>
          </g>
          <g id="组_928" data-name="组 928" transform="translate(6.797 8.203)">
            <g id="组_927" data-name="组 927">
              <g id="组_926" data-name="组 926">
                <path id="路径_2972" data-name="路径 2972" class="cls-9" d="M474.9,110.6v11.906h18.609V110.6Z" transform="translate(-474.9 -110.6)"/>
              </g>
            </g>
          </g>
          <g id="组_931" data-name="组 931" transform="translate(0 43.969)">
            <g id="组_930" data-name="组 930">
              <g id="组_929" data-name="组 929">
                <path id="路径_2973" data-name="路径 2973" class="cls-3" d="M471.509,186.9v3.844H460.4V186.9h11.109Z" transform="translate(-460.4 -186.9)"/>
              </g>
            </g>
          </g>
          <g id="组_934" data-name="组 934" transform="translate(1.875 40.078)">
            <g id="组_933" data-name="组 933">
              <g id="组_932" data-name="组 932">
                <path id="路径_2974" data-name="路径 2974" class="cls-10" d="M471.759,178.6v3.891H464.4V178.6h7.359Z" transform="translate(-464.4 -178.6)"/>
              </g>
            </g>
          </g>
          <g id="组_937" data-name="组 937" transform="translate(2.625)">
            <g id="组_936" data-name="组 936">
              <g id="组_935" data-name="组 935">
                <path id="路径_2975" data-name="路径 2975" class="cls-3" d="M468.906,93.1A2.906,2.906,0,1,1,466,96.006,2.921,2.921,0,0,1,468.906,93.1Z" transform="translate(-466 -93.1)"/>
              </g>
            </g>
          </g>
          <g id="组_940" data-name="组 940" transform="translate(4.313 5.766)">
            <g id="组_939" data-name="组 939">
              <g id="组_938" data-name="组 938">
                <path id="路径_2976" data-name="路径 2976" class="cls-4" d="M472.084,119.744v19.969H469.6V105.4h2.484v14.344Z" transform="translate(-469.6 -105.4)"/>
              </g>
            </g>
          </g>
        </g>
        <g id="组_960" data-name="组 960">
          <g id="组_944" data-name="组 944" transform="translate(0 43.969)">
            <g id="组_943" data-name="组 943">
              <g id="组_942" data-name="组 942">
                <path id="路径_2977" data-name="路径 2977" class="cls-5" d="M470.978,190.634H459.822a.42.42,0,0,1-.422-.422v-3.891a.42.42,0,0,1,.422-.422H461.7a.422.422,0,1,1,0,.844h-1.453v3.047h10.266v-3.047h-1.453a.422.422,0,1,1,0-.844h1.875a.42.42,0,0,1,.422.422v3.891A.359.359,0,0,1,470.978,190.634Z" transform="translate(-459.4 -185.9)"/>
              </g>
            </g>
          </g>
          <g id="组_947" data-name="组 947" transform="translate(1.875 40.125)">
            <g id="组_946" data-name="组 946">
              <g id="组_945" data-name="组 945">
                <path id="路径_2978" data-name="路径 2978" class="cls-5" d="M471.228,182.434h-7.406a.42.42,0,0,1-.422-.422v-3.891a.42.42,0,0,1,.422-.422h2.484a.422.422,0,0,1,0,.844h-2.016v3.047h6.516v-3.047h-2.016a.422.422,0,0,1,0-.844h2.484a.42.42,0,0,1,.422.422v3.891A.5.5,0,0,1,471.228,182.434Z" transform="translate(-463.4 -177.7)"/>
              </g>
            </g>
          </g>
          <g id="组_950" data-name="组 950" transform="translate(4.359 5.813)">
            <g id="组_949" data-name="组 949">
              <g id="组_948" data-name="组 948">
                <path id="路径_2979" data-name="路径 2979" class="cls-5" d="M471.606,139.656h-2.484a.42.42,0,0,1-.422-.422V104.922a.42.42,0,0,1,.422-.422h2.484a.42.42,0,0,1,.422.422v2.484a.422.422,0,1,1-.844,0v-2.063h-1.594v33.516h1.594V119.266a.422.422,0,0,1,.844,0v20.016A.451.451,0,0,1,471.606,139.656Z" transform="translate(-468.7 -104.5)"/>
              </g>
            </g>
          </g>
          <g id="组_953" data-name="组 953" transform="translate(2.672)">
            <g id="组_952" data-name="组 952">
              <g id="组_951" data-name="组 951">
                <path id="路径_2980" data-name="路径 2980" class="cls-5" d="M468.428,98.756a3.328,3.328,0,1,1,3.328-3.328A3.341,3.341,0,0,1,468.428,98.756Zm0-5.766a2.484,2.484,0,1,0,2.484,2.484A2.471,2.471,0,0,0,468.428,92.991Z" transform="translate(-465.1 -92.1)"/>
              </g>
            </g>
          </g>
          <g id="组_956" data-name="组 956" transform="translate(21.187 11.062)">
            <g id="组_955" data-name="组 955">
              <g id="组_954" data-name="组 954">
                <path id="路径_2981" data-name="路径 2981" class="cls-5" d="M515.85,128.45H505.022a.42.42,0,0,1-.422-.422v-2.812a.422.422,0,0,1,.844,0v2.391h9.7l-2.578-5.344a.514.514,0,0,1,0-.375l2.578-5.344h-5.906a.422.422,0,0,1,0-.844H515.8a.579.579,0,0,1,.375.188.352.352,0,0,1,0,.422l-2.812,5.766,2.813,5.766a.65.65,0,0,1,0,.422A.314.314,0,0,1,515.85,128.45Z" transform="translate(-504.6 -115.7)"/>
              </g>
            </g>
          </g>
          <g id="组_959" data-name="组 959" transform="translate(6.797 8.297)">
            <g id="组_958" data-name="组 958">
              <g id="组_957" data-name="组 957">
                <path id="路径_2982" data-name="路径 2982" class="cls-5" d="M492.978,122.5H474.322a.42.42,0,0,1-.422-.422V110.222a.42.42,0,0,1,.422-.422h18.656a.42.42,0,0,1,.422.422v11.859A.42.42,0,0,1,492.978,122.5Zm-18.187-.844h17.766V110.644H474.791v11.016Z" transform="translate(-473.9 -109.8)"/>
              </g>
            </g>
          </g>
        </g>
      </g>
      <g id="组_991" data-name="组 991" transform="translate(295.078 56.156)">
        <g id="组_964" data-name="组 964" transform="translate(1.687 1.687)">
          <g id="组_963" data-name="组 963">
            <g id="组_962" data-name="组 962">
              <path id="路径_2983" data-name="路径 2983" class="cls-5" d="M633.569,132.681a.426.426,0,0,1-.328-.141.453.453,0,0,1,0-.656l8.344-8.344a.464.464,0,0,1,.656.656l-8.344,8.344A.506.506,0,0,1,633.569,132.681Z" transform="translate(-633.1 -123.4)"/>
            </g>
          </g>
        </g>
        <g id="组_967" data-name="组 967" transform="translate(18.562 1.687)">
          <g id="组_966" data-name="组 966">
            <g id="组_965" data-name="组 965">
              <path id="路径_2984" data-name="路径 2984" class="cls-5" d="M669.569,132.681a.426.426,0,0,1-.328-.141.453.453,0,0,1,0-.656l8.344-8.344a.464.464,0,0,1,.656.656l-8.344,8.344A.506.506,0,0,1,669.569,132.681Z" transform="translate(-669.1 -123.4)"/>
            </g>
          </g>
        </g>
        <g id="组_970" data-name="组 970" transform="translate(10.219 1.687)">
          <g id="组_969" data-name="组 969">
            <g id="组_968" data-name="组 968">
              <path id="路径_2985" data-name="路径 2985" class="cls-5" d="M660.112,132.681a.426.426,0,0,1-.328-.141l-8.344-8.344a.464.464,0,0,1,.656-.656l8.344,8.344a.453.453,0,0,1,0,.656A.506.506,0,0,1,660.112,132.681Z" transform="translate(-651.3 -123.4)"/>
            </g>
          </g>
        </g>
        <g id="组_975" data-name="组 975" transform="translate(0 8.391)">
          <g id="组_972" data-name="组 972" transform="translate(0.422 0.422)">
            <g id="组_971" data-name="组 971">
              <path id="路径_2986" data-name="路径 2986" class="cls-11" d="M630.4,140.288a1.688,1.688,0,1,1,1.688,1.688A1.68,1.68,0,0,1,630.4,140.288Z" transform="translate(-630.4 -138.6)"/>
            </g>
          </g>
          <g id="组_974" data-name="组 974">
            <g id="组_973" data-name="组 973">
              <path id="路径_2987" data-name="路径 2987" class="cls-5" d="M631.656,142.012a2.156,2.156,0,1,1,2.156-2.156A2.181,2.181,0,0,1,631.656,142.012Zm0-3.422a1.219,1.219,0,0,0,0,2.438,1.219,1.219,0,0,0,0-2.438Z" transform="translate(-629.5 -137.7)"/>
            </g>
          </g>
        </g>
        <g id="组_980" data-name="组 980" transform="translate(8.484)">
          <g id="组_977" data-name="组 977" transform="translate(0.469 0.469)">
            <g id="组_976" data-name="组 976">
              <path id="路径_2988" data-name="路径 2988" class="cls-9" d="M648.6,122.488a1.688,1.688,0,1,1,1.688,1.688A1.68,1.68,0,0,1,648.6,122.488Z" transform="translate(-648.6 -120.8)"/>
            </g>
          </g>
          <g id="组_979" data-name="组 979">
            <g id="组_978" data-name="组 978">
              <path id="路径_2989" data-name="路径 2989" class="cls-5" d="M649.756,124.113a2.156,2.156,0,1,1,2.156-2.156A2.121,2.121,0,0,1,649.756,124.113Zm0-3.422a1.219,1.219,0,1,0,1.219,1.219A1.182,1.182,0,0,0,649.756,120.691Z" transform="translate(-647.6 -119.8)"/>
            </g>
          </g>
        </g>
        <g id="组_985" data-name="组 985" transform="translate(16.875 8.391)">
          <g id="组_982" data-name="组 982" transform="translate(0.422 0.422)">
            <g id="组_981" data-name="组 981">
              <path id="路径_2990" data-name="路径 2990" class="cls-8" d="M666.4,140.288a1.688,1.688,0,1,1,1.688,1.688A1.68,1.68,0,0,1,666.4,140.288Z" transform="translate(-666.4 -138.6)"/>
            </g>
          </g>
          <g id="组_984" data-name="组 984">
            <g id="组_983" data-name="组 983">
              <path id="路径_2991" data-name="路径 2991" class="cls-5" d="M667.656,142.012a2.156,2.156,0,1,1,2.156-2.156A2.181,2.181,0,0,1,667.656,142.012Zm0-3.422a1.219,1.219,0,0,0,0,2.438,1.219,1.219,0,0,0,0-2.438Z" transform="translate(-665.5 -137.7)"/>
            </g>
          </g>
        </g>
        <g id="组_990" data-name="组 990" transform="translate(25.219)">
          <g id="组_987" data-name="组 987" transform="translate(0.469 0.469)">
            <g id="组_986" data-name="组 986">
              <path id="路径_2992" data-name="路径 2992" class="cls-4" d="M684.3,122.488a1.687,1.687,0,1,1,1.687,1.688A1.68,1.68,0,0,1,684.3,122.488Z" transform="translate(-684.3 -120.8)"/>
            </g>
          </g>
          <g id="组_989" data-name="组 989">
            <g id="组_988" data-name="组 988">
              <path id="路径_2993" data-name="路径 2993" class="cls-5" d="M685.456,124.113a2.156,2.156,0,1,1,2.156-2.156A2.15,2.15,0,0,1,685.456,124.113Zm0-3.422a1.219,1.219,0,0,0,0,2.438,1.241,1.241,0,0,0,1.219-1.219A1.21,1.21,0,0,0,685.456,120.691Z" transform="translate(-683.3 -119.8)"/>
            </g>
          </g>
        </g>
      </g>
      <g id="组_1043" data-name="组 1043" transform="translate(259.547 59.061)">
        <g id="组_996" data-name="组 996" transform="translate(0 0.002)">
          <g id="组_993" data-name="组 993" transform="translate(0.469 0.469)">
            <g id="组_992" data-name="组 992">
              <path id="路径_2994" data-name="路径 2994" class="cls-4" d="M575.559,127H554.7v33.75h24.656V130.8h-3.8Z" transform="translate(-554.7 -127)"/>
            </g>
          </g>
          <g id="组_995" data-name="组 995">
            <g id="组_994" data-name="组 994">
              <path id="路径_2995" data-name="路径 2995" class="cls-5" d="M578.825,160.688H554.169a.443.443,0,0,1-.469-.469v-33.75a.443.443,0,0,1,.469-.469h20.859a.443.443,0,0,1,.469.469V129.8h3.328a.443.443,0,0,1,.469.469v29.953A.5.5,0,0,1,578.825,160.688Zm-24.187-.937h23.719V130.734h-3.328a.443.443,0,0,1-.469-.469v-3.328H554.638Z" transform="translate(-553.7 -126)"/>
            </g>
          </g>
        </g>
        <g id="组_1001" data-name="组 1001" transform="translate(20.859)">
          <g id="组_998" data-name="组 998" transform="translate(0.469 0.471)">
            <g id="组_997" data-name="组 997">
              <path id="路径_2996" data-name="路径 2996" class="cls-8" d="M599.2,127l3.8,3.8h-3.8Z" transform="translate(-599.2 -127)"/>
            </g>
          </g>
          <g id="组_1000" data-name="组 1000">
            <g id="组_999" data-name="组 999">
              <path id="路径_2997" data-name="路径 2997" class="cls-5" d="M602.466,130.732h-3.8a.443.443,0,0,1-.469-.469v-3.8a.41.41,0,0,1,.281-.422.428.428,0,0,1,.516.094l3.75,3.75a.426.426,0,0,1,.188.375A.47.47,0,0,1,602.466,130.732Zm-3.328-.937h2.2l-2.2-2.2Z" transform="translate(-598.2 -125.996)"/>
            </g>
          </g>
        </g>
        <g id="组_1006" data-name="组 1006" transform="translate(2.953 7.502)">
          <g id="组_1003" data-name="组 1003" transform="translate(0.469 0.469)">
            <g id="组_1002" data-name="组 1002">
              <rect id="矩形_742" data-name="矩形 742" class="cls-12" width="2.484" height="11.016"/>
            </g>
          </g>
          <g id="组_1005" data-name="组 1005">
            <g id="组_1004" data-name="组 1004">
              <path id="路径_2998" data-name="路径 2998" class="cls-5" d="M562.953,153.953h-2.484a.443.443,0,0,1-.469-.469V142.469a.443.443,0,0,1,.469-.469h2.484a.443.443,0,0,1,.469.469v11.016A.47.47,0,0,1,562.953,153.953Zm-2.016-.937h1.547V142.938h-1.547Z" transform="translate(-560 -142)"/>
            </g>
          </g>
        </g>
        <g id="组_1011" data-name="组 1011" transform="translate(7.031 5.018)">
          <g id="组_1008" data-name="组 1008" transform="translate(0.422 0.422)">
            <g id="组_1007" data-name="组 1007">
              <rect id="矩形_743" data-name="矩形 743" class="cls-9" width="2.484" height="13.5"/>
            </g>
          </g>
          <g id="组_1010" data-name="组 1010">
            <g id="组_1009" data-name="组 1009">
              <path id="路径_2999" data-name="路径 2999" class="cls-5" d="M571.653,151.137h-2.484a.443.443,0,0,1-.469-.469v-13.5a.443.443,0,0,1,.469-.469h2.484a.443.443,0,0,1,.469.469v13.5A.5.5,0,0,1,571.653,151.137Zm-2.062-.937h1.547V137.637h-1.547Z" transform="translate(-568.7 -136.7)"/>
            </g>
          </g>
        </g>
        <g id="组_1016" data-name="组 1016" transform="translate(11.062 15.377)">
          <g id="组_1013" data-name="组 1013" transform="translate(0.469 0.469)">
            <g id="组_1012" data-name="组 1012">
              <rect id="矩形_744" data-name="矩形 744" class="cls-11" width="2.484" height="3.141"/>
            </g>
          </g>
          <g id="组_1015" data-name="组 1015">
            <g id="组_1014" data-name="组 1014">
              <path id="路径_3000" data-name="路径 3000" class="cls-5" d="M580.253,162.878h-2.484a.443.443,0,0,1-.469-.469v-3.141a.443.443,0,0,1,.469-.469h2.484a.443.443,0,0,1,.469.469v3.141A.47.47,0,0,1,580.253,162.878Zm-2.016-.937h1.547v-2.2h-1.547Z" transform="translate(-577.3 -158.8)"/>
            </g>
          </g>
        </g>
        <g id="组_1021" data-name="组 1021" transform="translate(15.141 11.111)">
          <g id="组_1018" data-name="组 1018" transform="translate(0.469 0.422)">
            <g id="组_1017" data-name="组 1017">
              <rect id="矩形_745" data-name="矩形 745" class="cls-12" width="2.484" height="7.406"/>
            </g>
          </g>
          <g id="组_1020" data-name="组 1020">
            <g id="组_1019" data-name="组 1019">
              <path id="路径_3001" data-name="路径 3001" class="cls-5" d="M588.953,158.044h-2.484a.443.443,0,0,1-.469-.469v-7.406a.443.443,0,0,1,.469-.469h2.484a.443.443,0,0,1,.469.469v7.406A.47.47,0,0,1,588.953,158.044Zm-2.016-.937h1.547v-6.469h-1.547Z" transform="translate(-586 -149.7)"/>
            </g>
          </g>
        </g>
        <g id="组_1026" data-name="组 1026" transform="translate(19.219 9.049)">
          <g id="组_1023" data-name="组 1023" transform="translate(0.422 0.469)">
            <g id="组_1022" data-name="组 1022">
              <rect id="矩形_746" data-name="矩形 746" class="cls-12" width="2.484" height="9.469"/>
            </g>
          </g>
          <g id="组_1025" data-name="组 1025">
            <g id="组_1024" data-name="组 1024">
              <path id="路径_3002" data-name="路径 3002" class="cls-5" d="M597.653,155.706h-2.484a.443.443,0,0,1-.469-.469v-9.469a.443.443,0,0,1,.469-.469h2.484a.443.443,0,0,1,.469.469v9.469A.5.5,0,0,1,597.653,155.706Zm-2.062-.937h1.547v-8.531h-1.547Z" transform="translate(-594.7 -145.3)"/>
            </g>
          </g>
        </g>
        <g id="组_1042" data-name="组 1042" transform="translate(2.953 21.471)">
          <g id="组_1029" data-name="组 1029">
            <g id="组_1028" data-name="组 1028">
              <g id="组_1027" data-name="组 1027">
                <path id="路径_3003" data-name="路径 3003" class="cls-5" d="M579.219,172.738h-18.75a.469.469,0,0,1,0-.937h18.75a.443.443,0,0,1,.469.469A.47.47,0,0,1,579.219,172.738Z" transform="translate(-560 -171.8)"/>
              </g>
            </g>
          </g>
          <g id="组_1032" data-name="组 1032" transform="translate(0 2.016)">
            <g id="组_1031" data-name="组 1031">
              <g id="组_1030" data-name="组 1030">
                <path id="路径_3004" data-name="路径 3004" class="cls-5" d="M579.219,177.038h-18.75a.469.469,0,0,1,0-.937h18.75a.443.443,0,0,1,.469.469A.5.5,0,0,1,579.219,177.038Z" transform="translate(-560 -176.1)"/>
              </g>
            </g>
          </g>
          <g id="组_1035" data-name="组 1035" transform="translate(0 3.984)">
            <g id="组_1034" data-name="组 1034">
              <g id="组_1033" data-name="组 1033">
                <path id="路径_3005" data-name="路径 3005" class="cls-5" d="M579.219,181.238h-18.75a.469.469,0,0,1,0-.937h18.75a.443.443,0,0,1,.469.469A.47.47,0,0,1,579.219,181.238Z" transform="translate(-560 -180.3)"/>
              </g>
            </g>
          </g>
          <g id="组_1038" data-name="组 1038" transform="translate(0 6)">
            <g id="组_1037" data-name="组 1037">
              <g id="组_1036" data-name="组 1036">
                <path id="路径_3006" data-name="路径 3006" class="cls-5" d="M579.219,185.538h-18.75a.469.469,0,0,1,0-.937h18.75a.443.443,0,0,1,.469.469A.5.5,0,0,1,579.219,185.538Z" transform="translate(-560 -184.6)"/>
              </g>
            </g>
          </g>
          <g id="组_1041" data-name="组 1041" transform="translate(0 7.969)">
            <g id="组_1040" data-name="组 1040">
              <g id="组_1039" data-name="组 1039">
                <path id="路径_3007" data-name="路径 3007" class="cls-5" d="M579.219,189.738h-18.75a.469.469,0,0,1,0-.937h18.75a.443.443,0,0,1,.469.469A.47.47,0,0,1,579.219,189.738Z" transform="translate(-560 -188.8)"/>
              </g>
            </g>
          </g>
        </g>
      </g>
      <g id="XMLID_6_" transform="translate(300.938 70.875)">
        <g id="组_1047" data-name="组 1047" transform="translate(0.375 0.281)">
          <g id="组_1046" data-name="组 1046">
            <g id="组_1045" data-name="组 1045">
              <g id="组_1044" data-name="组 1044">
                <path id="路径_3008" data-name="路径 3008" class="cls-3" d="M647.487,154.613a7.747,7.747,0,0,1,2.484-1.031h0l.422-1.781h1.875l.422,1.781h0a6.823,6.823,0,0,1,2.484,1.031l1.547-.984,1.313,1.313-.984,1.547a6.824,6.824,0,0,1,1.031,2.484l1.781.422v1.875l-1.781.422a6.823,6.823,0,0,1-1.031,2.484l.984,1.547-1.312,1.313-1.547-.984a6.823,6.823,0,0,1-2.484,1.031l-.422,1.781h-1.875l-.422-1.781a7.747,7.747,0,0,1-2.484-1.031l-1.547.984-1.312-1.312.984-1.547a6.824,6.824,0,0,1-1.031-2.484l-1.781-.422v-1.875l1.781-.422a7.748,7.748,0,0,1,1.031-2.484l-.984-1.547,1.313-1.312Zm6.422,5.766a2.6,2.6,0,0,0-2.578-2.578,2.578,2.578,0,1,0,2.578,2.578Z" transform="translate(-642.8 -151.8)"/>
              </g>
            </g>
          </g>
        </g>
        <g id="组_1060" data-name="组 1060">
          <g id="组_1050" data-name="组 1050" transform="translate(4.641 2.672)">
            <g id="组_1049" data-name="组 1049">
              <g id="组_1048" data-name="组 1048">
                <path id="路径_3009" data-name="路径 3009" class="cls-5" d="M652.322,157.744a.42.42,0,0,1-.422-.422.666.666,0,0,1,.094-.281.426.426,0,0,1,.328-.141.422.422,0,0,1,0,.844Z" transform="translate(-651.9 -156.9)"/>
              </g>
            </g>
          </g>
          <g id="组_1053" data-name="组 1053">
            <g id="组_1052" data-name="组 1052">
              <g id="组_1051" data-name="组 1051">
                <path id="路径_3010" data-name="路径 3010" class="cls-5" d="M651.844,169.059h-1.875a.45.45,0,0,1-.422-.328l-.328-1.5a7.235,7.235,0,0,1-2.156-.891l-1.312.844a.42.42,0,0,1-.516-.047l-1.312-1.312a.426.426,0,0,1-.047-.516l.844-1.312a6.761,6.761,0,0,1-.891-2.156l-1.5-.328a.45.45,0,0,1-.328-.422v-1.875a.45.45,0,0,1,.328-.422l1.5-.328a7.778,7.778,0,0,1,.891-2.156L643.875,155a.42.42,0,0,1,.047-.516l1.313-1.312a.371.371,0,0,1,.516-.047l1.313.844a7.235,7.235,0,0,1,2.156-.891l.375-1.547a.45.45,0,0,1,.422-.328h1.875a.45.45,0,0,1,.422.328l.375,1.547a7.235,7.235,0,0,1,2.156.891l1.313-.844a.42.42,0,0,1,.516.047l1.313,1.313a.426.426,0,0,1,.047.516l-.844,1.313a7.235,7.235,0,0,1,.891,2.156l1.5.328a.45.45,0,0,1,.328.422v1.875a.45.45,0,0,1-.328.422l-1.5.328a7.235,7.235,0,0,1-.891,2.156l.844,1.313a.42.42,0,0,1-.047.516l-1.312,1.313a.426.426,0,0,1-.516.047l-1.312-.844a7.235,7.235,0,0,1-2.156.891l-.328,1.5A.71.71,0,0,1,651.844,169.059Zm-1.547-.844h1.219l.328-1.453a.566.566,0,0,1,.328-.328,6.924,6.924,0,0,0,2.344-.984.426.426,0,0,1,.469,0l1.266.8.844-.844-.8-1.266a.426.426,0,0,1,0-.469,6.924,6.924,0,0,0,.984-2.344.463.463,0,0,1,.328-.328l1.453-.328V159.45l-1.453-.328a.566.566,0,0,1-.328-.328,6.924,6.924,0,0,0-.984-2.344.426.426,0,0,1,0-.469l.8-1.266-.844-.844-1.266.8a.426.426,0,0,1-.469,0,6.924,6.924,0,0,0-2.344-.984.45.45,0,0,1-.328-.422l-.328-1.359H650.3l-.328,1.406a.362.362,0,0,1-.328.375,5.457,5.457,0,0,0-2.344.984.426.426,0,0,1-.469,0l-1.266-.8-.844.844.8,1.266a.426.426,0,0,1,0,.469,6.924,6.924,0,0,0-.984,2.344.463.463,0,0,1-.328.328l-1.453.328v1.219L644.2,161a.566.566,0,0,1,.328.328,6.924,6.924,0,0,0,.984,2.344.426.426,0,0,1,0,.469l-.8,1.266.844.844,1.266-.8a.426.426,0,0,1,.469,0,6.924,6.924,0,0,0,2.344.984.463.463,0,0,1,.328.328Z" transform="translate(-642 -151.2)"/>
              </g>
            </g>
          </g>
          <g id="组_1056" data-name="组 1056" transform="translate(5.906 5.859)">
            <g id="组_1055" data-name="组 1055">
              <g id="组_1054" data-name="组 1054">
                <path id="路径_3011" data-name="路径 3011" class="cls-5" d="M657.6,169.7a3,3,0,1,1,3-3A3.021,3.021,0,0,1,657.6,169.7Zm0-5.156a2.181,2.181,0,0,0-2.156,2.156,2.15,2.15,0,0,0,2.156,2.156,2.156,2.156,0,0,0,0-4.312Z" transform="translate(-654.6 -163.7)"/>
              </g>
            </g>
          </g>
          <g id="组_1059" data-name="组 1059" transform="translate(3.562 3.563)">
            <g id="组_1058" data-name="组 1058">
              <g id="组_1057" data-name="组 1057">
                <path id="路径_3012" data-name="路径 3012" class="cls-5" d="M650.022,164.519a.42.42,0,0,1-.422-.422,5.281,5.281,0,0,1,5.3-5.3.422.422,0,1,1,0,.844,4.481,4.481,0,0,0-4.5,4.5C650.444,164.331,650.256,164.519,650.022,164.519Z" transform="translate(-649.6 -158.8)"/>
              </g>
            </g>
          </g>
        </g>
      </g>
      <g id="XMLID_5_" transform="translate(225.469 92.672)">
        <g id="组_1064" data-name="组 1064" transform="translate(0.375 0.281)">
          <g id="组_1063" data-name="组 1063">
            <g id="组_1062" data-name="组 1062">
              <g id="组_1061" data-name="组 1061">
                <path id="路径_3013" data-name="路径 3013" class="cls-3" d="M486.487,201.113a7.748,7.748,0,0,1,2.484-1.031h0l.422-1.781h1.875l.422,1.781h0a6.824,6.824,0,0,1,2.484,1.031l1.547-.984,1.313,1.313-.984,1.547a6.824,6.824,0,0,1,1.031,2.484l1.781.422v1.875l-1.781.422a6.824,6.824,0,0,1-1.031,2.484l.984,1.547-1.312,1.313-1.547-.984a6.823,6.823,0,0,1-2.484,1.031l-.422,1.781h-1.875l-.422-1.781a7.748,7.748,0,0,1-2.484-1.031l-1.547.984-1.312-1.312.984-1.547a6.824,6.824,0,0,1-1.031-2.484l-1.781-.422v-1.875l1.781-.422a7.748,7.748,0,0,1,1.031-2.484l-.984-1.547,1.313-1.312Zm6.375,5.766a2.6,2.6,0,0,0-2.578-2.578,2.578,2.578,0,1,0,2.578,2.578Z" transform="translate(-481.8 -198.3)"/>
              </g>
            </g>
          </g>
        </g>
        <g id="组_1077" data-name="组 1077">
          <g id="组_1067" data-name="组 1067" transform="translate(4.594 2.672)">
            <g id="组_1066" data-name="组 1066">
              <g id="组_1065" data-name="组 1065">
                <path id="路径_3014" data-name="路径 3014" class="cls-5" d="M491.222,204.244a.42.42,0,0,1-.422-.422.666.666,0,0,1,.094-.281.426.426,0,0,1,.328-.141.42.42,0,0,1,.422.422C491.691,204.056,491.456,204.244,491.222,204.244Z" transform="translate(-490.8 -203.4)"/>
              </g>
            </g>
          </g>
          <g id="组_1070" data-name="组 1070">
            <g id="组_1069" data-name="组 1069">
              <g id="组_1068" data-name="组 1068">
                <path id="路径_3015" data-name="路径 3015" class="cls-5" d="M490.844,215.559h-1.875a.45.45,0,0,1-.422-.328l-.328-1.5a7.234,7.234,0,0,1-2.156-.891l-1.312.844a.42.42,0,0,1-.516-.047l-1.312-1.312a.426.426,0,0,1-.047-.516l.844-1.312a6.761,6.761,0,0,1-.891-2.156l-1.5-.328a.45.45,0,0,1-.328-.422v-1.875a.45.45,0,0,1,.328-.422l1.5-.328a7.778,7.778,0,0,1,.891-2.156l-.844-1.312a.42.42,0,0,1,.047-.516l1.313-1.312a.371.371,0,0,1,.516-.047l1.313.844a7.234,7.234,0,0,1,2.156-.891l.375-1.547a.45.45,0,0,1,.422-.328h1.875a.45.45,0,0,1,.422.328l.375,1.547a7.235,7.235,0,0,1,2.156.891l1.312-.844a.42.42,0,0,1,.516.047l1.313,1.313a.426.426,0,0,1,.047.516l-.844,1.313a7.235,7.235,0,0,1,.891,2.156l1.5.328a.45.45,0,0,1,.328.422v1.875a.45.45,0,0,1-.328.422l-1.5.328a7.235,7.235,0,0,1-.891,2.156l.844,1.313a.42.42,0,0,1-.047.516l-1.312,1.313a.426.426,0,0,1-.516.047l-1.312-.844a7.235,7.235,0,0,1-2.156.891l-.328,1.5C491.172,215.419,491.031,215.559,490.844,215.559Zm-1.547-.844h1.219l.328-1.453a.566.566,0,0,1,.328-.328,6.924,6.924,0,0,0,2.344-.984.426.426,0,0,1,.469,0l1.266.8.844-.844-.8-1.266a.426.426,0,0,1,0-.469,6.924,6.924,0,0,0,.984-2.344.463.463,0,0,1,.328-.328l1.453-.328V205.95l-1.453-.328a.566.566,0,0,1-.328-.328,6.924,6.924,0,0,0-.984-2.344.426.426,0,0,1,0-.469l.8-1.266-.844-.844-1.266.8a.426.426,0,0,1-.469,0,6.924,6.924,0,0,0-2.344-.984.45.45,0,0,1-.328-.422l-.328-1.359H489.3l-.328,1.406a.362.362,0,0,1-.328.375,5.457,5.457,0,0,0-2.344.984.426.426,0,0,1-.469,0l-1.266-.8-.844.844.8,1.266a.426.426,0,0,1,0,.469,6.924,6.924,0,0,0-.984,2.344.463.463,0,0,1-.328.328l-1.453.328v1.219l1.453.328a.566.566,0,0,1,.328.328,6.924,6.924,0,0,0,.984,2.344.426.426,0,0,1,0,.469l-.8,1.266.844.844,1.266-.8a.426.426,0,0,1,.469,0,6.924,6.924,0,0,0,2.344.984.463.463,0,0,1,.328.328Z" transform="translate(-481 -197.7)"/>
              </g>
            </g>
          </g>
          <g id="组_1073" data-name="组 1073" transform="translate(5.859 5.859)">
            <g id="组_1072" data-name="组 1072">
              <g id="组_1071" data-name="组 1071">
                <path id="路径_3016" data-name="路径 3016" class="cls-5" d="M496.5,216.2a3,3,0,1,1,3-3A2.991,2.991,0,0,1,496.5,216.2Zm0-5.156a2.181,2.181,0,0,0-2.156,2.156,2.15,2.15,0,0,0,2.156,2.156,2.181,2.181,0,0,0,2.156-2.156A2.15,2.15,0,0,0,496.5,211.044Z" transform="translate(-493.5 -210.2)"/>
              </g>
            </g>
          </g>
          <g id="组_1076" data-name="组 1076" transform="translate(3.563 3.563)">
            <g id="组_1075" data-name="组 1075">
              <g id="组_1074" data-name="组 1074">
                <path id="路径_3017" data-name="路径 3017" class="cls-5" d="M489.022,211.019a.42.42,0,0,1-.422-.422,5.281,5.281,0,0,1,5.3-5.3.422.422,0,1,1,0,.844,4.481,4.481,0,0,0-4.5,4.5C489.444,210.831,489.256,211.019,489.022,211.019Z" transform="translate(-488.6 -205.3)"/>
              </g>
            </g>
          </g>
        </g>
      </g>
      <g id="XMLID_4_" transform="translate(289.453 80.578)">
        <g id="组_1080" data-name="组 1080" transform="translate(0.516 0.469)">
          <g id="组_1079" data-name="组 1079">
            <g id="组_1078" data-name="组 1078">
              <path id="路径_3018" data-name="路径 3018" class="cls-4" d="M622.256,175.1a6,6,0,0,1,1.969-.8h0l.328-1.406h1.5l.328,1.406h0a5.618,5.618,0,0,1,1.969.8l1.219-.75,1.031,1.031-.75,1.219a7.347,7.347,0,0,1,.844,1.969l1.406.328v1.5l-1.406.328a5.617,5.617,0,0,1-.8,1.969l.75,1.219-1.031,1.078-1.219-.75a7.347,7.347,0,0,1-1.969.844l-.328,1.406h-1.5l-.328-1.406a4.931,4.931,0,0,1-1.969-.844l-1.219.75-1.031-1.031.75-1.219a6,6,0,0,1-.8-1.969l-1.406-.328v-1.5l1.406-.328a4.93,4.93,0,0,1,.844-1.969l-.75-1.219,1.031-1.078Zm5.063,4.547a2.016,2.016,0,1,0-2.016,2.016A2,2,0,0,0,627.319,179.65Z" transform="translate(-618.6 -172.9)"/>
            </g>
          </g>
        </g>
        <g id="组_1089" data-name="组 1089">
          <g id="组_1082" data-name="组 1082" transform="translate(3.75 2.25)">
            <g id="组_1081" data-name="组 1081">
              <path id="路径_3019" data-name="路径 3019" class="cls-5" d="M625.922,177.544a.42.42,0,0,1-.422-.422.283.283,0,0,1,.141-.281.405.405,0,0,1,.281-.141.42.42,0,0,1,.422.422A.453.453,0,0,1,625.922,177.544Z" transform="translate(-625.5 -176.7)"/>
            </g>
          </g>
          <g id="组_1084" data-name="组 1084">
            <g id="组_1083" data-name="组 1083">
              <path id="路径_3020" data-name="路径 3020" class="cls-5" d="M625.469,186.337h-1.5a.45.45,0,0,1-.422-.328l-.281-1.125a7.061,7.061,0,0,1-1.641-.656l-.984.609a.42.42,0,0,1-.516-.047l-1.031-1.031a.426.426,0,0,1-.047-.516l.609-.984a6.323,6.323,0,0,1-.656-1.641l-1.172-.281a.45.45,0,0,1-.328-.422v-1.5a.45.45,0,0,1,.328-.422l1.172-.281a7.061,7.061,0,0,1,.656-1.641l-.609-.984a.42.42,0,0,1,.047-.516l1.031-1.078a.371.371,0,0,1,.516-.047l.984.609a5.021,5.021,0,0,1,1.641-.656l.281-1.172a.45.45,0,0,1,.422-.328h1.5a.45.45,0,0,1,.422.328l.281,1.172a7.061,7.061,0,0,1,1.641.656l.984-.609a.42.42,0,0,1,.516.047l1.031,1.031a.426.426,0,0,1,.047.516l-.609.984a5.021,5.021,0,0,1,.656,1.641l1.172.281a.45.45,0,0,1,.328.422v1.5a.45.45,0,0,1-.328.422l-1.125.281a7.061,7.061,0,0,1-.656,1.641l.609.984a.42.42,0,0,1-.047.516l-1.031,1.078a.371.371,0,0,1-.516.047l-.984-.609a5.021,5.021,0,0,1-1.641.656l-.281,1.125C625.8,186.2,625.656,186.337,625.469,186.337Zm-1.172-.844h.8l.234-1.078a.566.566,0,0,1,.328-.328,5.2,5.2,0,0,0,1.828-.75.426.426,0,0,1,.469,0l.938.609.563-.562-.609-.937a.426.426,0,0,1,0-.469,5.2,5.2,0,0,0,.75-1.828.463.463,0,0,1,.328-.328l1.078-.234v-.844l-1.078-.234a.566.566,0,0,1-.328-.328,5.2,5.2,0,0,0-.75-1.828.426.426,0,0,1,0-.469l.609-.937-.562-.562-.937.609a.426.426,0,0,1-.469,0,5.2,5.2,0,0,0-1.828-.75.411.411,0,0,1-.328-.422l-.234-.984h-.8l-.234,1.031a.4.4,0,0,1-.328.375,5.2,5.2,0,0,0-1.828.75.426.426,0,0,1-.469,0l-.937-.609-.562.563.609.938a.426.426,0,0,1,0,.469,5.2,5.2,0,0,0-.75,1.828.463.463,0,0,1-.328.328l-1.078.234v.844l1.078.234a.566.566,0,0,1,.328.328,5.2,5.2,0,0,0,.75,1.828.426.426,0,0,1,0,.469l-.609.938.563.563.938-.609a.426.426,0,0,1,.469,0,5.2,5.2,0,0,0,1.828.75.463.463,0,0,1,.328.328Z" transform="translate(-617.5 -171.9)"/>
            </g>
          </g>
          <g id="组_1086" data-name="组 1086" transform="translate(4.781 4.781)">
            <g id="组_1085" data-name="组 1085">
              <path id="路径_3021" data-name="路径 3021" class="cls-5" d="M630.138,186.975a2.451,2.451,0,0,1-2.437-2.437,2.438,2.438,0,1,1,2.438,2.438Zm0-4.031a1.594,1.594,0,1,0,1.594,1.594A1.581,1.581,0,0,0,630.138,182.944Z" transform="translate(-627.7 -182.1)"/>
            </g>
          </g>
          <g id="组_1088" data-name="组 1088" transform="translate(2.906 2.906)">
            <g id="组_1087" data-name="组 1087">
              <path id="路径_3022" data-name="路径 3022" class="cls-5" d="M624.122,182.834a.42.42,0,0,1-.422-.422,4.321,4.321,0,0,1,4.313-4.312.422.422,0,0,1,0,.844,3.522,3.522,0,0,0-3.469,3.469A.42.42,0,0,1,624.122,182.834Z" transform="translate(-623.7 -178.1)"/>
            </g>
          </g>
        </g>
      </g>
      <g id="组_1094" data-name="组 1094" transform="translate(282.234 33.703)">
        <g id="组_1091" data-name="组 1091" transform="translate(0.469 0.422)">
          <g id="组_1090" data-name="组 1090">
            <rect id="矩形_747" data-name="矩形 747" class="cls-8" width="25.688" height="13.969"/>
          </g>
        </g>
        <g id="组_1093" data-name="组 1093">
          <g id="组_1092" data-name="组 1092">
            <path id="路径_3023" data-name="路径 3023" class="cls-5" d="M628.209,86.713H602.522a.42.42,0,0,1-.422-.422V72.322a.42.42,0,0,1,.422-.422h25.688a.42.42,0,0,1,.422.422V86.291A.42.42,0,0,1,628.209,86.713Zm-25.219-.844h24.8V72.744h-24.8Z" transform="translate(-602.1 -71.9)"/>
          </g>
        </g>
      </g>
      <g id="组_1097" data-name="组 1097" transform="translate(282.281 33.715)">
        <g id="组_1096" data-name="组 1096">
          <g id="组_1095" data-name="组 1095">
            <path id="路径_3024" data-name="路径 3024" class="cls-5" d="M620.2,78.242h-9.375a.358.358,0,0,1-.234-.094l-8.2-5.437a.41.41,0,0,1,.422-.7l8.109,5.391h9.141l7.969-5.391a.383.383,0,0,1,.563.094.444.444,0,0,1-.094.609l-8.062,5.438C620.341,78.195,620.294,78.242,620.2,78.242Z" transform="translate(-602.2 -71.926)"/>
          </g>
        </g>
      </g>
      <g id="组_1102" data-name="组 1102" transform="translate(282.217 25.195)">
        <g id="组_1099" data-name="组 1099" transform="translate(0.486 0.398)">
          <g id="组_1098" data-name="组 1098">
            <path id="路径_3025" data-name="路径 3025" class="cls-13" d="M628.741,63.131,615.9,54.6l-12.8,8.531Z" transform="translate(-603.1 -54.6)"/>
          </g>
        </g>
        <g id="组_1101" data-name="组 1101">
          <g id="组_1100" data-name="组 1100">
            <path id="路径_3026" data-name="路径 3026" class="cls-5" d="M628.19,63.1H602.5a.539.539,0,0,1-.422-.281.384.384,0,0,1,.188-.469l12.844-8.531a.426.426,0,0,1,.469,0l12.844,8.531a.446.446,0,0,1,.188.469A.475.475,0,0,1,628.19,63.1Zm-24.281-.844h22.875l-11.437-7.594Z" transform="translate(-602.064 -53.75)"/>
          </g>
        </g>
      </g>
      <g id="组_1105" data-name="组 1105" transform="translate(282.281 39.141)">
        <g id="组_1104" data-name="组 1104">
          <g id="组_1103" data-name="组 1103">
            <path id="路径_3027" data-name="路径 3027" class="cls-5" d="M602.622,92.875a.334.334,0,0,1-.281-.141.4.4,0,0,1,0-.609l8.2-8.484a.431.431,0,1,1,.609.609l-8.2,8.484A.623.623,0,0,1,602.622,92.875Z" transform="translate(-602.2 -83.5)"/>
          </g>
        </g>
      </g>
      <g id="组_1108" data-name="组 1108" transform="translate(299.801 39.223)">
        <g id="组_1107" data-name="组 1107">
          <g id="组_1106" data-name="组 1106">
            <path id="路径_3028" data-name="路径 3028" class="cls-5" d="M648.118,92.968a.334.334,0,0,1-.281-.141L639.68,84.39a.431.431,0,0,1,.609-.609l8.156,8.438a.493.493,0,0,1,0,.609A.506.506,0,0,1,648.118,92.968Z" transform="translate(-639.575 -83.675)"/>
          </g>
        </g>
      </g>
      <g id="组_1113" data-name="组 1113" transform="translate(285 23.062)">
        <g id="组_1110" data-name="组 1110" transform="translate(0.422 0.422)">
          <g id="组_1109" data-name="组 1109">
            <path id="路径_3029" data-name="路径 3029" class="cls-14" d="M629.2,50.1H608.9V62.569l5.484,3.656h9.375l5.438-3.656Z" transform="translate(-608.9 -50.1)"/>
          </g>
        </g>
        <g id="组_1112" data-name="组 1112">
          <g id="组_1111" data-name="组 1111">
            <path id="路径_3030" data-name="路径 3030" class="cls-5" d="M623.281,66.169h-9.375a.358.358,0,0,1-.234-.094l-5.484-3.656a.354.354,0,0,1-.187-.328V49.622a.42.42,0,0,1,.422-.422h20.3a.42.42,0,0,1,.422.422V62.091a.4.4,0,0,1-.188.328l-5.437,3.656C623.422,66.122,623.375,66.169,623.281,66.169ZM614,65.325h9.141L628.3,61.9V50.044H608.844V61.856Z" transform="translate(-608 -49.2)"/>
          </g>
        </g>
      </g>
      <g id="组_1116" data-name="组 1116" transform="translate(290.906 39.609)">
        <g id="组_1115" data-name="组 1115">
          <g id="组_1114" data-name="组 1114">
            <path id="路径_3031" data-name="路径 3031" class="cls-15" d="M620.6,84.5" transform="translate(-620.6 -84.5)"/>
          </g>
        </g>
      </g>
      <g id="组_1121" data-name="组 1121" transform="translate(287.109 31.312)">
        <g id="组_1118" data-name="组 1118" transform="translate(0.422 0.469)">
          <g id="组_1117" data-name="组 1117">
            <line id="直线_376" data-name="直线 376" class="cls-14" x2="15.938"/>
          </g>
        </g>
        <g id="组_1120" data-name="组 1120">
          <g id="组_1119" data-name="组 1119">
            <path id="路径_3032" data-name="路径 3032" class="cls-5" d="M628.859,67.644H612.922a.422.422,0,0,1,0-.844h15.938a.422.422,0,0,1,0,.844Z" transform="translate(-612.5 -66.8)"/>
          </g>
        </g>
      </g>
      <g id="组_1126" data-name="组 1126" transform="translate(287.109 33.281)">
        <g id="组_1123" data-name="组 1123" transform="translate(0.422 0.422)">
          <g id="组_1122" data-name="组 1122">
            <line id="直线_377" data-name="直线 377" class="cls-14" x2="15.938"/>
          </g>
        </g>
        <g id="组_1125" data-name="组 1125">
          <g id="组_1124" data-name="组 1124">
            <path id="路径_3033" data-name="路径 3033" class="cls-5" d="M628.859,71.844H612.922a.422.422,0,0,1,0-.844h15.938a.422.422,0,0,1,0,.844Z" transform="translate(-612.5 -71)"/>
          </g>
        </g>
      </g>
      <g id="组_1131" data-name="组 1131" transform="translate(299.766 26.344)">
        <g id="组_1128" data-name="组 1128" transform="translate(0.422 0.422)">
          <g id="组_1127" data-name="组 1127">
            <line id="直线_378" data-name="直线 378" class="cls-14" x2="3.281"/>
          </g>
        </g>
        <g id="组_1130" data-name="组 1130">
          <g id="组_1129" data-name="组 1129">
            <path id="路径_3034" data-name="路径 3034" class="cls-5" d="M643.2,57.044h-3.281a.422.422,0,0,1,0-.844H643.2a.422.422,0,0,1,0,.844Z" transform="translate(-639.5 -56.2)"/>
          </g>
        </g>
      </g>
      <g id="组_1136" data-name="组 1136" transform="translate(299.766 28.266)">
        <g id="组_1133" data-name="组 1133" transform="translate(0.422 0.422)">
          <g id="组_1132" data-name="组 1132">
            <line id="直线_379" data-name="直线 379" class="cls-14" x2="3.281"/>
          </g>
        </g>
        <g id="组_1135" data-name="组 1135">
          <g id="组_1134" data-name="组 1134">
            <path id="路径_3035" data-name="路径 3035" class="cls-5" d="M643.2,61.144h-3.281a.422.422,0,0,1,0-.844H643.2a.422.422,0,0,1,0,.844Z" transform="translate(-639.5 -60.3)"/>
          </g>
        </g>
      </g>
      <g id="组_1141" data-name="组 1141" transform="translate(287.109 35.25)">
        <g id="组_1138" data-name="组 1138" transform="translate(0.422 0.422)">
          <g id="组_1137" data-name="组 1137">
            <line id="直线_380" data-name="直线 380" class="cls-14" x2="15.938"/>
          </g>
        </g>
        <g id="组_1140" data-name="组 1140">
          <g id="组_1139" data-name="组 1139">
            <path id="路径_3036" data-name="路径 3036" class="cls-5" d="M628.859,76.044H612.922a.422.422,0,0,1,0-.844h15.938a.422.422,0,0,1,0,.844Z" transform="translate(-612.5 -75.2)"/>
          </g>
        </g>
      </g>
      <g id="组_1146" data-name="组 1146" transform="translate(287.109 25.172)">
        <g id="组_1143" data-name="组 1143" transform="translate(0.422 0.422)">
          <g id="组_1142" data-name="组 1142">
            <rect id="矩形_748" data-name="矩形 748" class="cls-14" width="10.922" height="4.266"/>
          </g>
        </g>
        <g id="组_1145" data-name="组 1145">
          <g id="组_1144" data-name="组 1144">
            <path id="路径_3037" data-name="路径 3037" class="cls-5" d="M623.844,58.809H612.922a.42.42,0,0,1-.422-.422V54.122a.42.42,0,0,1,.422-.422h10.922a.42.42,0,0,1,.422.422v4.266A.42.42,0,0,1,623.844,58.809Zm-10.5-.844h10.078V54.544H613.344Z" transform="translate(-612.5 -53.7)"/>
          </g>
        </g>
      </g>
      <g id="组_1151" data-name="组 1151" transform="translate(316.406 18.937)">
        <g id="组_1148" data-name="组 1148" transform="translate(0.422 0.422)">
          <g id="组_1147" data-name="组 1147">
            <rect id="矩形_749" data-name="矩形 749" class="cls-6" width="7.875" height="7.875"/>
          </g>
        </g>
        <g id="组_1150" data-name="组 1150">
          <g id="组_1149" data-name="组 1149">
            <path id="路径_3038" data-name="路径 3038" class="cls-5" d="M683.3,49.166h-7.875a.42.42,0,0,1-.422-.422V40.822a.42.42,0,0,1,.422-.422H683.3a.42.42,0,0,1,.422.422V48.7A.433.433,0,0,1,683.3,49.166Zm-7.453-.844h7.031V41.291h-7.031Z" transform="translate(-675 -40.4)"/>
          </g>
        </g>
      </g>
      <g id="组_1156" data-name="组 1156" transform="translate(316.359 18.938)">
        <g id="组_1153" data-name="组 1153" transform="translate(0.469 0.422)">
          <g id="组_1152" data-name="组 1152">
            <line id="直线_381" data-name="直线 381" class="cls-6" x2="7.875" y2="7.922"/>
          </g>
        </g>
        <g id="组_1155" data-name="组 1155">
          <g id="组_1154" data-name="组 1154">
            <path id="路径_3039" data-name="路径 3039" class="cls-5" d="M683.244,49.166a.334.334,0,0,1-.281-.141l-7.922-7.875a.431.431,0,0,1,.609-.609l7.875,7.875a.4.4,0,0,1,0,.609A.405.405,0,0,1,683.244,49.166Z" transform="translate(-674.9 -40.4)"/>
          </g>
        </g>
      </g>
      <g id="组_1161" data-name="组 1161" transform="translate(316.406 18.938)">
        <g id="组_1158" data-name="组 1158" transform="translate(0.422 0.422)">
          <g id="组_1157" data-name="组 1157">
            <line id="直线_382" data-name="直线 382" class="cls-6" y1="7.922" x2="7.875"/>
          </g>
        </g>
        <g id="组_1160" data-name="组 1160">
          <g id="组_1159" data-name="组 1159">
            <path id="路径_3040" data-name="路径 3040" class="cls-5" d="M675.422,49.166a.334.334,0,0,1-.281-.141.4.4,0,0,1,0-.609l7.828-7.875a.431.431,0,0,1,.609.609L675.7,49.025A.405.405,0,0,1,675.422,49.166Z" transform="translate(-675 -40.4)"/>
          </g>
        </g>
      </g>
      <g id="组_1166" data-name="组 1166" transform="translate(209.344 100.172)">
        <g id="组_1163" data-name="组 1163" transform="translate(0.422 0.422)">
          <g id="组_1162" data-name="组 1162">
            <rect id="矩形_750" data-name="矩形 750" class="cls-6" width="7.875" height="7.875"/>
          </g>
        </g>
        <g id="组_1165" data-name="组 1165">
          <g id="组_1164" data-name="组 1164">
            <path id="路径_3041" data-name="路径 3041" class="cls-5" d="M454.9,222.419h-7.875A.42.42,0,0,1,446.6,222v-7.875a.42.42,0,0,1,.422-.422H454.9a.42.42,0,0,1,.422.422V222A.42.42,0,0,1,454.9,222.419Zm-7.453-.844h7.031v-7.031h-7.031Z" transform="translate(-446.6 -213.7)"/>
          </g>
        </g>
      </g>
      <g id="组_1171" data-name="组 1171" transform="translate(209.344 100.125)">
        <g id="组_1168" data-name="组 1168" transform="translate(0.422 0.469)">
          <g id="组_1167" data-name="组 1167">
            <line id="直线_383" data-name="直线 383" class="cls-6" x2="7.875" y2="7.875"/>
          </g>
        </g>
        <g id="组_1170" data-name="组 1170">
          <g id="组_1169" data-name="组 1169">
            <path id="路径_3042" data-name="路径 3042" class="cls-5" d="M454.9,222.366a.334.334,0,0,1-.281-.141l-7.875-7.875a.431.431,0,1,1,.609-.609l7.875,7.875a.4.4,0,0,1,0,.609A.389.389,0,0,1,454.9,222.366Z" transform="translate(-446.6 -213.6)"/>
          </g>
        </g>
      </g>
      <g id="组_1176" data-name="组 1176" transform="translate(209.344 100.125)">
        <g id="组_1173" data-name="组 1173" transform="translate(0.422 0.469)">
          <g id="组_1172" data-name="组 1172">
            <line id="直线_384" data-name="直线 384" class="cls-6" y1="7.875" x2="7.875"/>
          </g>
        </g>
        <g id="组_1175" data-name="组 1175">
          <g id="组_1174" data-name="组 1174">
            <path id="路径_3043" data-name="路径 3043" class="cls-5" d="M447.022,222.366a.334.334,0,0,1-.281-.141.4.4,0,0,1,0-.609l7.875-7.875a.431.431,0,0,1,.609.609l-7.875,7.875A.389.389,0,0,1,447.022,222.366Z" transform="translate(-446.6 -213.6)"/>
          </g>
        </g>
      </g>
      <g id="组_1177" data-name="组 1177" transform="translate(50.953 79.547)">
        <path id="路径_3044" data-name="路径 3044" class="cls-6" d="M170.809,187.044h-59.3a2.821,2.821,0,0,1-2.812-2.812V172.512a2.821,2.821,0,0,1,2.813-2.812h59.3a2.821,2.821,0,0,1,2.813,2.813v11.719A2.791,2.791,0,0,1,170.809,187.044Zm-59.3-16.406a1.881,1.881,0,0,0-1.875,1.875v11.719a1.881,1.881,0,0,0,1.875,1.875h59.3a1.881,1.881,0,0,0,1.875-1.875V172.512a1.881,1.881,0,0,0-1.875-1.875Z" transform="translate(-108.7 -169.7)"/>
      </g>
      <g id="组_1178" data-name="组 1178" transform="translate(47.391 85.594)">
        <rect id="矩形_751" data-name="矩形 751" class="cls-16" width="72" height="10.828"/>
      </g>
      <g id="组_1180" data-name="组 1180" transform="translate(62.813 85.828)">
        <g id="组_1179" data-name="组 1179">
          <path id="路径_3045" data-name="路径 3045" class="cls-6" d="M134.563,186.019v1.969H134V183.3h1.266a1.944,1.944,0,0,1,1.266.328,1.211,1.211,0,0,1,.422.984,1.293,1.293,0,0,1-.937,1.266l1.266,2.109h-.656l-1.125-1.969Zm0-.469h.75a1.392,1.392,0,0,0,.844-.234.823.823,0,0,0,.281-.7.73.73,0,0,0-.281-.656,1.482,1.482,0,0,0-.891-.187h-.7Z" transform="translate(-134 -183.206)"/>
          <path id="路径_3046" data-name="路径 3046" class="cls-6" d="M146.725,187.988H144.1V183.3h2.625v.469h-2.062v1.5h1.969v.469h-1.969v1.734h2.063Z" transform="translate(-139.366 -183.206)"/>
          <path id="路径_3047" data-name="路径 3047" class="cls-6" d="M155.563,187.934l-.562-1.5h-1.875l-.562,1.5H152l1.875-4.734h.469l1.828,4.734Zm-.75-2.016-.562-1.453c-.094-.187-.141-.422-.234-.656a4.812,4.812,0,0,1-.187.656l-.562,1.453Z" transform="translate(-143.563 -183.153)"/>
          <path id="路径_3048" data-name="路径 3048" class="cls-6" d="M167.35,185.6a2.351,2.351,0,0,1-.609,1.781,2.467,2.467,0,0,1-1.828.609H163.6V183.3h1.453a2.111,2.111,0,0,1,2.3,2.3Zm-.562,0a1.894,1.894,0,0,0-.469-1.406,1.78,1.78,0,0,0-1.359-.469h-.8v3.75h.656a1.94,1.94,0,0,0,1.453-.469A1.84,1.84,0,0,0,166.788,185.6Z" transform="translate(-149.725 -183.206)"/>
          <path id="路径_3049" data-name="路径 3049" class="cls-6" d="M182.309,187.988l-1.594-4.172h-.047a8.681,8.681,0,0,1,.047,1.172v3H180.2V183.3h.844l1.5,3.891h.047l1.5-3.891h.8v4.688h-.562v-3.047a9.812,9.812,0,0,1,.047-1.125h-.047l-1.594,4.172Z" transform="translate(-158.544 -183.206)"/>
          <path id="路径_3050" data-name="路径 3050" class="cls-6" d="M198.113,185.491a2.619,2.619,0,0,1-.562,1.781,2.263,2.263,0,0,1-3.187,0,3.1,3.1,0,0,1,0-3.562,1.986,1.986,0,0,1,1.594-.609,2.082,2.082,0,0,1,1.594.656A2.491,2.491,0,0,1,198.113,185.491Zm-3.7,0a2.151,2.151,0,0,0,.422,1.453,1.455,1.455,0,0,0,1.172.516,1.425,1.425,0,0,0,1.172-.469,2.151,2.151,0,0,0,.422-1.453,2.554,2.554,0,0,0-.375-1.453,1.425,1.425,0,0,0-1.172-.469,1.392,1.392,0,0,0-1.172.516A1.714,1.714,0,0,0,194.409,185.491Z" transform="translate(-165.769 -183.1)"/>
          <path id="路径_3051" data-name="路径 3051" class="cls-6" d="M207.262,186.019v1.969H206.7V183.3h1.266a1.944,1.944,0,0,1,1.266.328,1.211,1.211,0,0,1,.422.984,1.293,1.293,0,0,1-.937,1.266l1.266,2.109h-.656l-1.125-1.969Zm0-.469h.75a1.392,1.392,0,0,0,.844-.234.823.823,0,0,0,.281-.7.73.73,0,0,0-.281-.656,1.482,1.482,0,0,0-.891-.187h-.7v1.781Z" transform="translate(-172.622 -183.206)"/>
          <path id="路径_3052" data-name="路径 3052" class="cls-6" d="M219.425,187.988H216.8V183.3h2.625v.469h-2.062v1.5h1.969v.469h-1.969v1.734h2.063Z" transform="translate(-177.987 -183.206)"/>
        </g>
      </g>
      <text id="HPay数字货币交易平台" class="cls-17" transform="translate(43.125 30.437)"><tspan x="0" y="0">HPay数字货币交易平台</tspan></text>
      <text id="全球顶尖的区块链技术团队_支付结合市场八大优_势_融入成一个系统_实现完全去中心化_会员间_点对点流通_打造全球块茎支付平台以及全球数字_货币交易平台" data-name="全球顶尖的区块链技术团队，支付结合市场八大优
势，融入成一个系统，实现完全去中心化，会员间
点对点流通，打造全球块茎支付平台以及全球数字
货币交易平台" class="cls-18" transform="translate(30.138 43.422)"><tspan x="0" y="0">全球顶尖的区块链技术团队，支付结合市场八大优</tspan><tspan x="0" y="6">势，融入成一个系统，实现完全去中心化，会员间</tspan><tspan x="0" y="12">点对点流通，打造全球块茎支付平台以及全球数字</tspan><tspan x="0" y="18">货币交易平台</tspan></text>
    </g>
  </g>
</svg>
